<?xml version="1.0" standalone="no"?>
<!DOCTYPE svg PUBLIC "-//W3C//DTD SVG 20010904//EN"
 "http://www.w3.org/TR/2001/REC-SVG-20010904/DTD/svg10.dtd">
<svg version="1.0" xmlns="http://www.w3.org/2000/svg"
 width="700.000000pt" height="700.000000pt" viewBox="0 0 700.000000 700.000000"
 preserveAspectRatio="xMidYMid meet">
<metadata>
Created by potrace 1.11, written by Peter Selinger 2001-2013
</metadata>
<g transform="translate(0.000000,700.000000) scale(0.100000,-0.100000)"
fill="#000000" stroke="none">
<path d="M3995 6708 c-17 -183 -69 -340 -155 -472 l-48 -74 106 70 c59 38 143
93 186 121 76 50 80 55 107 122 40 99 74 246 59 255 -7 4 -57 15 -113 24 -56
10 -109 20 -118 22 -14 4 -18 -7 -24 -68z"/>
<path d="M4690 6512 c-62 -94 -249 -279 -342 -339 -43 -27 -135 -74 -205 -103
-71 -30 -156 -71 -190 -92 -89 -56 -185 -164 -233 -262 -69 -139 -70 -148 -70
-813 l0 -593 -49 0 c-88 0 -81 26 -81 -316 l0 -304 -75 0 -75 0 0 239 c0 202
-9 333 -24 348 -6 7 -170 -49 -241 -81 -93 -43 -193 -110 -289 -193 -43 -37
-97 -82 -120 -99 -44 -33 -166 -80 -307 -119 -234 -64 -407 -175 -545 -348
-65 -82 -158 -253 -170 -314 -4 -18 -10 -33 -15 -33 -26 0 -103 183 -169 401
-84 278 -126 547 -140 884 -7 178 -12 233 -29 286 -114 360 -594 476 -862 209
-69 -69 -101 -131 -168 -325 -152 -440 -211 -843 -190 -1306 15 -319 68 -604
169 -911 50 -150 167 -435 175 -426 1 2 33 70 70 151 94 206 182 335 324 478
253 253 559 397 911 429 178 16 2071 14 2093 -2 24 -19 26 -375 3 -463 -26
-96 -80 -196 -146 -267 -33 -36 -60 -69 -60 -72 0 -3 235 -6 523 -6 l522 1
325 270 c179 148 353 288 387 310 270 177 644 172 917 -12 39 -26 91 -68 116
-93 l45 -46 -270 -273 c-149 -149 -421 -424 -605 -610 -184 -187 -357 -357
-384 -378 l-49 -40 44 7 c162 22 238 71 455 288 381 382 827 843 856 884 88
127 91 311 6 444 -60 96 -156 158 -281 184 -231 48 -378 153 -525 373 -49 75
-113 152 -177 217 -162 164 -301 235 -521 269 -156 24 -226 56 -369 170 -116
92 -172 124 -410 236 -136 64 -259 216 -300 375 -23 89 -22 936 1 1015 56 190
181 313 382 380 112 37 231 94 317 152 58 40 255 223 255 237 0 7 -147 71
-160 70 -3 0 -25 -31 -50 -68z"/>
<path d="M2932 5784 c-33 -30 -36 -44 -34 -135 l2 -57 63 -32 c141 -73 287
-200 364 -316 l38 -57 3 214 c1 117 0 219 -2 225 -7 17 -159 106 -246 144 -41
18 -93 35 -116 38 -35 4 -46 0 -72 -24z"/>
<path d="M2539 5491 c-16 -16 -29 -38 -29 -48 0 -20 53 -114 96 -171 20 -26
114 -96 180 -135 6 -3 -6 26 -27 67 -21 40 -55 122 -75 182 -19 60 -43 115
-52 122 -26 20 -62 14 -93 -17z"/>
<path d="M2475 1193 c-29 -4 -37 -20 -230 -425 -110 -231 -201 -424 -203 -429
-8 -19 298 -143 488 -197 800 -230 1614 -174 2368 161 96 43 120 58 166 108
71 77 98 146 97 254 0 118 -31 194 -113 281 -31 33 -70 61 -111 79 -55 25 -79
29 -217 37 -86 4 -165 13 -178 20 -28 15 -52 57 -52 93 l0 25 -992 -2 c-546 0
-1006 -3 -1023 -5z"/>
</g>
</svg>
